<svg xmlns="http://www.w3.org/2000/svg" viewBox="0 0 9180.77 1041.89"><defs><style>.cls-1{fill:#fff;}</style></defs><g id="图层_2" data-name="图层 2"><g id="logo"><path class="cls-1" d="M846-2334.56c-31.42-32.47-61.59-66-91.38-99.81s-59-68.15-87.83-102.78-57.23-69.61-85.14-105-55.33-71.2-81.54-108c31.43,32.46,61.6,66,91.39,99.8s59,68.15,87.81,102.79,57.22,69.63,85.12,105S819.75-2371.35,846-2334.56Z" transform="translate(-107.99 2765.6)"/><path class="cls-1" d="M551.46-2759.66c27.32,33.51,53.3,67.94,78.88,102.64s50.53,69.85,75.08,105.27,48.64,71.16,72.2,107.27,46.61,72.57,68.37,109.92c-27.34-33.49-53.32-67.91-78.9-102.62S716.56-2507,692-2542.47s-48.63-71.17-72.19-107.28S573.23-2722.31,551.46-2759.66Z" transform="translate(-107.99 2765.6)"/><path class="cls-1" d="M846-2334.56c-23.32-34.24-45.23-69.29-66.72-104.57s-42.3-71-62.69-106.87-40.3-72.09-59.65-108.59-38.16-73.3-55.59-110.89c23.34,34.23,45.25,69.28,66.73,104.57S710.37-2590,730.75-2554s40.28,72.1,59.63,108.6S828.53-2372.13,846-2334.56Z" transform="translate(-107.99 2765.6)"/><path class="cls-1" d="M654.12-2765.6c19.07,34.55,36.66,69.76,53.8,105.16s33.58,71.13,49.58,107.05,31.48,72.06,46.37,108.47,29.23,73.06,42.12,110.36c-19.09-34.54-36.69-69.74-53.82-105.15s-33.58-71.13-49.56-107.05-31.46-72.08-46.36-108.48S667-2728.31,654.12-2765.6Z" transform="translate(-107.99 2765.6)"/><path class="cls-1" d="M846-2334.56c-14.63-34.42-27.72-69.35-40.35-104.43s-24.51-70.38-35.94-105.84-22.32-71.09-32.61-106.92-20-71.85-28.16-108.35c14.65,34.42,27.74,69.34,40.36,104.42s24.51,70.39,35.92,105.85,22.31,71.1,32.59,106.93S837.78-2371,846-2334.56Z" transform="translate(-107.99 2765.6)"/><path class="cls-1" d="M760.76-2749.39c10.41,33.89,19.23,68.11,27.56,102.42s15.92,68.79,23,103.36S825-2474.36,831-2439.55s11.25,69.74,15,105c-10.43-33.88-19.25-68.1-27.59-102.42s-15.92-68.78-23-103.35-13.65-69.26-19.58-104.07S764.56-2714.14,760.76-2749.39Z" transform="translate(-107.99 2765.6)"/><path class="cls-1" d="M805.59-2735.51c6.72,33.07,11.83,66.31,16.45,99.6s8.48,66.65,11.85,100.06,6.19,66.88,8.37,100.41,3.74,67.13,3.73,100.88c-6.75-33.07-11.86-66.31-16.48-99.59s-8.48-66.65-11.83-100.07-6.17-66.88-8.35-100.41S805.6-2701.76,805.59-2735.51Z" transform="translate(-107.99 2765.6)"/><path class="cls-1" d="M718.84-2461.7c-45.18-.75-90.21-3.11-135.19-6s-89.91-6.48-134.78-10.57-89.69-8.76-134.45-14.06-89.47-11.22-134-18.7c45.19.72,90.22,3.08,135.2,5.94s89.91,6.47,134.78,10.59,89.69,8.78,134.45,14.08S674.28-2469.17,718.84-2461.7Z" transform="translate(-107.99 2765.6)"/><path class="cls-1" d="M210-2554c43,4.38,85.72,10.35,128.35,16.8s85.12,13.66,127.53,21.35,84.71,15.92,126.9,24.79,84.27,18.36,126.07,29.39c-43-4.35-85.73-10.32-128.35-16.78s-85.13-13.66-127.53-21.37-84.71-15.94-126.9-24.81S251.79-2543,210-2554Z" transform="translate(-107.99 2765.6)"/><path class="cls-1" d="M718.84-2461.7c-40.7-7.73-81-17-121.12-26.77s-80.08-20.27-119.89-31.23-79.48-22.48-119-34.61-78.81-24.86-117.72-39.11c40.71,7.71,81,17,121.13,26.75s80.08,20.27,119.89,31.26,79.46,22.5,119,34.62S679.93-2475.93,718.84-2461.7Z" transform="translate(-107.99 2765.6)"/><path class="cls-1" d="M278.38-2630.82c37.91,10.94,75.25,23.4,112.41,36.32s74,26.55,110.74,40.63S574.75-2525.17,611-2510s72.33,31,107.82,48.26c-37.92-10.93-75.25-23.38-112.41-36.3s-74-26.55-110.74-40.66-73.21-28.71-109.48-43.92S313.88-2613.58,278.38-2630.82Z" transform="translate(-107.99 2765.6)"/><path class="cls-1" d="M718.84-2461.7c-34.69-14-68.64-29.44-102.37-45.32s-67.1-32.44-100.26-49.43-66.05-34.48-98.66-52.54-64.93-36.68-96.53-56.7c34.7,14,68.65,29.41,102.38,45.29s67.1,32.44,100.25,49.45,66,34.51,98.65,52.57S687.23-2481.7,718.84-2461.7Z" transform="translate(-107.99 2765.6)"/><path class="cls-1" d="M365.25-2694.77c31.32,16.6,61.75,34.56,91.91,52.93s59.9,37.39,89.37,56.8,58.63,39.3,87.44,59.72,57.28,41.36,84.87,63.62c-31.33-16.59-61.77-34.54-91.92-52.92S567-2552,537.56-2571.43s-58.62-39.32-87.43-59.74S392.86-2672.53,365.25-2694.77Z" transform="translate(-107.99 2765.6)"/><path class="cls-1" d="M406.76-2716.65c28.14,18.63,55.25,38.52,82.06,58.79s53.12,41.13,79.13,62.37,51.67,42.92,76.93,65.09,50.1,44.82,74,68.7c-28.15-18.62-55.27-38.5-82.07-58.78s-53.13-41.13-79.12-62.39S506-2625.8,480.74-2648,430.63-2692.79,406.76-2716.65Z" transform="translate(-107.99 2765.6)"/><path class="cls-1" d="M539-2461.7c-32.47,31.42-66,61.59-99.81,91.38s-68.15,59-102.78,87.83-69.61,57.23-105,85.13-71.19,55.34-108,81.55c32.46-31.43,66-61.61,99.8-91.4s68.15-59,102.79-87.81,69.63-57.21,105-85.12S502.24-2435.47,539-2461.7Z" transform="translate(-107.99 2765.6)"/><path class="cls-1" d="M113.93-2167.17c33.51-27.32,67.94-53.3,102.64-78.88s69.85-50.53,105.27-75.08,71.16-48.64,107.27-72.21,72.57-46.61,109.92-68.36c-33.49,27.33-67.91,53.32-102.62,78.9s-69.85,50.53-105.29,75.06-71.17,48.62-107.27,72.18S151.28-2188.95,113.93-2167.17Z" transform="translate(-107.99 2765.6)"/><path class="cls-1" d="M539-2461.7c-34.24,23.32-69.29,45.23-104.57,66.72s-71,42.29-106.87,62.69S255.51-2292,219-2272.64s-73.31,38.15-110.9,55.59c34.24-23.34,69.28-45.26,104.57-66.74s70.95-42.3,106.87-62.67,72.1-40.28,108.6-59.63S501.46-2444.25,539-2461.7Z" transform="translate(-107.99 2765.6)"/><path class="cls-1" d="M108-2269.83c34.55-19.07,69.76-36.66,105.17-53.81s71.12-33.57,107-49.57,72.06-31.48,108.47-46.38,73.06-29.22,110.36-42.11c-34.54,19.09-69.74,36.68-105.15,53.82s-71.13,33.58-107,49.56-72.07,31.46-108.48,46.35S145.28-2282.74,108-2269.83Z" transform="translate(-107.99 2765.6)"/><path class="cls-1" d="M539-2461.7c-34.42,14.63-69.35,27.72-104.42,40.34s-70.39,24.51-105.85,35.94-71.09,22.33-106.92,32.61-71.85,20-108.35,28.17c34.42-14.65,69.34-27.75,104.42-40.36s70.39-24.52,105.85-35.93,71.1-22.3,106.93-32.58S502.54-2453.49,539-2461.7Z" transform="translate(-107.99 2765.6)"/><path class="cls-1" d="M124.2-2376.48c33.89-10.4,68.11-19.22,102.42-27.56s68.79-15.92,103.36-23,69.25-13.67,104.06-19.6,69.74-11.26,105-15c-33.88,10.43-68.1,19.25-102.41,27.58s-68.79,15.92-103.36,23-69.26,13.65-104.07,19.58S159.45-2380.27,124.2-2376.48Z" transform="translate(-107.99 2765.6)"/><path class="cls-1" d="M138.08-2421.3c33.07-6.73,66.31-11.83,99.6-16.45s66.65-8.48,100.06-11.86,66.88-6.19,100.41-8.37,67.13-3.73,100.88-3.72c-33.07,6.75-66.31,11.86-99.59,16.48s-66.65,8.47-100.07,11.83S272.49-2427.22,239-2425,171.83-2421.31,138.08-2421.3Z" transform="translate(-107.99 2765.6)"/><path class="cls-1" d="M411.89-2334.56c-.75,45.18-3.11,90.21-6,135.2s-6.47,89.9-10.57,134.78-8.76,89.69-14.06,134.45-11.22,89.47-18.7,134c.72-45.18,3.08-90.21,5.94-135.2s6.47-89.9,10.59-134.77,8.78-89.69,14.08-134.45S404.42-2290,411.89-2334.56Z" transform="translate(-107.99 2765.6)"/><path class="cls-1" d="M319.56-1825.7c4.38-43,10.35-85.73,16.8-128.36s13.66-85.12,21.35-127.52,15.92-84.72,24.79-126.91,18.36-84.27,29.39-126.07c-4.35,43-10.32,85.73-16.78,128.36s-13.66,85.12-21.37,127.52-15.94,84.71-24.81,126.9S330.57-1867.51,319.56-1825.7Z" transform="translate(-107.99 2765.6)"/><path class="cls-1" d="M411.89-2334.56c-7.72,40.71-17,81-26.77,121.13s-20.27,80.08-31.23,119.89-22.48,79.47-34.61,119-24.86,78.82-39.11,117.73c7.71-40.72,17-81,26.76-121.13s20.26-80.09,31.25-119.89,22.5-79.47,34.62-119S397.66-2295.64,411.89-2334.56Z" transform="translate(-107.99 2765.6)"/><path class="cls-1" d="M242.77-1894.09c10.94-37.92,23.4-75.25,36.32-112.41s26.55-74,40.63-110.75,28.7-73.21,43.91-109.49,31-72.33,48.26-107.82c-10.92,37.93-23.38,75.26-36.3,112.42s-26.55,74-40.66,110.74-28.71,73.2-43.92,109.48S260-1929.59,242.77-1894.09Z" transform="translate(-107.99 2765.6)"/><path class="cls-1" d="M411.89-2334.56c-14,34.69-29.44,68.64-45.31,102.37s-32.44,67.11-49.44,100.26-34.48,66.06-52.54,98.66-36.68,64.93-56.7,96.54c14-34.7,29.41-68.66,45.3-102.38s32.43-67.11,49.45-100.25,34.5-66,52.56-98.65S391.89-2302.94,411.89-2334.56Z" transform="translate(-107.99 2765.6)"/><path class="cls-1" d="M178.82-1981c16.6-31.33,34.57-61.75,52.94-91.91s37.38-59.9,56.79-89.37,39.3-58.64,59.72-87.44,41.36-57.28,63.62-84.88c-16.59,31.34-34.54,61.77-52.92,91.93s-37.38,59.9-56.81,89.36-39.32,58.62-59.74,87.42S201.06-2008.57,178.82-1981Z" transform="translate(-107.99 2765.6)"/><path class="cls-1" d="M156.94-2022.47c18.63-28.14,38.52-55.26,58.79-82.06s41.14-53.12,62.37-79.14,42.92-51.67,65.09-76.92,44.82-50.11,68.7-74c-18.62,28.16-38.5,55.28-58.78,82.08s-41.13,53.12-62.39,79.12-42.93,51.66-65.1,76.91S180.8-2046.34,156.94-2022.47Z" transform="translate(-107.99 2765.6)"/><path class="cls-1" d="M411.89-2154.75c31.42,32.48,61.59,66,91.38,99.82s59,68.14,87.83,102.77,57.23,69.62,85.13,105,55.34,71.19,81.55,108c-31.43-32.47-61.61-66-91.4-99.81s-59-68.14-87.81-102.78-57.21-69.63-85.12-105S438.12-2118,411.89-2154.75Z" transform="translate(-107.99 2765.6)"/><path class="cls-1" d="M706.42-1729.65c-27.32-33.5-53.3-67.93-78.88-102.64s-50.53-69.85-75.08-105.27-48.64-71.16-72.21-107.26-46.61-72.57-68.36-109.93c27.33,33.49,53.32,67.92,78.9,102.63s50.53,69.85,75.06,105.28,48.62,71.18,72.18,107.28S684.65-1767,706.42-1729.65Z" transform="translate(-107.99 2765.6)"/><path class="cls-1" d="M411.89-2154.75c23.32,34.25,45.23,69.29,66.72,104.58s42.29,71,62.69,106.86,40.3,72.09,59.65,108.59,38.15,73.31,55.59,110.9c-23.34-34.24-45.26-69.28-66.74-104.57s-42.29-71-62.67-106.87-40.28-72.1-59.63-108.6S429.34-2117.17,411.89-2154.75Z" transform="translate(-107.99 2765.6)"/><path class="cls-1" d="M603.76-1723.71c-19.07-34.54-36.66-69.75-53.8-105.16s-33.58-71.13-49.58-107S468.9-2008,454-2044.38s-29.22-73.07-42.11-110.37c19.09,34.54,36.68,69.75,53.82,105.16s33.58,71.12,49.56,107.05,31.46,72.07,46.35,108.48S590.85-1761,603.76-1723.71Z" transform="translate(-107.99 2765.6)"/><path class="cls-1" d="M411.89-2154.75c14.63,34.43,27.72,69.36,40.34,104.43s24.51,70.39,35.95,105.85,22.32,71.09,32.61,106.92,20,71.85,28.16,108.35c-14.65-34.42-27.75-69.35-40.36-104.42s-24.52-70.39-35.92-105.86-22.31-71.09-32.59-106.92S420.1-2118.25,411.89-2154.75Z" transform="translate(-107.99 2765.6)"/><path class="cls-1" d="M497.11-1739.91c-10.4-33.89-19.22-68.11-27.56-102.43s-15.92-68.78-23-103.35-13.67-69.25-19.6-104.06-11.25-69.74-15-105c10.43,33.89,19.25,68.1,27.58,102.42s15.92,68.79,23,103.36,13.65,69.25,19.58,104.06S493.32-1775.16,497.11-1739.91Z" transform="translate(-107.99 2765.6)"/><path class="cls-1" d="M452.29-1753.79c-6.73-33.08-11.83-66.31-16.45-99.6S427.36-1920,424-1953.45s-6.19-66.88-8.37-100.42-3.73-67.12-3.72-100.88c6.75,33.07,11.86,66.31,16.48,99.6s8.47,66.65,11.83,100.06,6.17,66.89,8.34,100.42S452.28-1787.54,452.29-1753.79Z" transform="translate(-107.99 2765.6)"/><path class="cls-1" d="M851.12-1772.65c-28.14-18.63-55.26-38.52-82.06-58.79s-53.12-41.14-79.14-62.38-51.67-42.91-76.92-65.08-50.11-44.83-74-68.7c28.16,18.61,55.28,38.5,82.08,58.77s53.12,41.14,79.12,62.39,51.66,42.93,76.91,65.11S827.25-1796.51,851.12-1772.65Z" transform="translate(-107.99 2765.6)"/><path class="cls-1" d="M539-2027.6c45.18.75,90.21,3.11,135.2,6s89.9,6.47,134.78,10.57,89.69,8.76,134.45,14.06,89.47,11.21,134,18.7c-45.18-.73-90.21-3.09-135.2-5.94s-89.9-6.47-134.77-10.59-89.69-8.78-134.45-14.08S583.6-2020.14,539-2027.6Z" transform="translate(-107.99 2765.6)"/><path class="cls-1" d="M1047.89-1935.27c-43-4.38-85.73-10.35-128.36-16.8s-85.12-13.67-127.52-21.35-84.72-15.93-126.91-24.8S580.83-2016.57,539-2027.6c43,4.35,85.73,10.32,128.36,16.77s85.12,13.67,127.53,21.37,84.7,16,126.89,24.82S1006.09-1946.29,1047.89-1935.27Z" transform="translate(-107.99 2765.6)"/><path class="cls-1" d="M539-2027.6c40.71,7.72,81,17,121.13,26.77s80.08,20.26,119.89,31.23,79.47,22.48,119,34.61,78.82,24.85,117.73,39.1c-40.71-7.7-81-17-121.13-26.75s-80.09-20.26-119.89-31.25-79.47-22.5-119-34.63S578-2013.38,539-2027.6Z" transform="translate(-107.99 2765.6)"/><path class="cls-1" d="M979.5-1858.48c-37.92-11-75.25-23.4-112.41-36.32s-74-26.55-110.74-40.64-73.22-28.69-109.5-43.9-72.33-31-107.82-48.26c37.93,10.92,75.26,23.38,112.42,36.29s74,26.56,110.74,40.66,73.2,28.72,109.48,43.93S944-1875.72,979.5-1858.48Z" transform="translate(-107.99 2765.6)"/><path class="cls-1" d="M539-2027.6c34.7,14,68.65,29.44,102.37,45.31s67.11,32.44,100.26,49.43,66.06,34.49,98.67,52.55,64.92,36.68,96.53,56.7c-34.7-14-68.66-29.42-102.38-45.3s-67.11-32.44-100.25-49.45-66.05-34.5-98.65-52.56S570.65-2007.6,539-2027.6Z" transform="translate(-107.99 2765.6)"/><path class="cls-1" d="M892.63-1794.53c-31.32-16.61-61.75-34.57-91.91-52.94s-59.9-37.38-89.37-56.8-58.63-39.3-87.44-59.72-57.28-41.36-84.88-63.61c31.34,16.58,61.77,34.54,91.93,52.91s59.9,37.39,89.36,56.82,58.62,39.32,87.43,59.74S865-1816.77,892.63-1794.53Z" transform="translate(-107.99 2765.6)"/><path class="cls-1" d="M718.84-2027.6c32.48-31.42,66-61.59,99.82-91.39s68.15-59,102.77-87.82,69.62-57.23,105-85.14,71.19-55.33,108-81.54c-32.47,31.43-66,61.6-99.8,91.39s-68.15,59-102.79,87.81-69.63,57.22-105,85.12S755.63-2053.84,718.84-2027.6Z" transform="translate(-107.99 2765.6)"/><path class="cls-1" d="M1143.94-2322.13c-33.5,27.32-67.93,53.3-102.63,78.88s-69.86,50.53-105.28,75.08-71.16,48.64-107.26,72.2-72.57,46.61-109.93,68.37c33.5-27.34,67.92-53.33,102.63-78.9s69.85-50.53,105.28-75.06,71.18-48.63,107.28-72.19S1106.6-2300.36,1143.94-2322.13Z" transform="translate(-107.99 2765.6)"/><path class="cls-1" d="M718.84-2027.6c34.25-23.32,69.29-45.23,104.58-66.72s71-42.3,106.86-62.69,72.09-40.3,108.59-59.65,73.31-38.16,110.9-55.59c-34.24,23.34-69.28,45.25-104.57,66.73s-71,42.3-106.87,62.68-72.1,40.28-108.6,59.63S756.42-2045.06,718.84-2027.6Z" transform="translate(-107.99 2765.6)"/><path class="cls-1" d="M1149.89-2219.47c-34.55,19.07-69.76,36.66-105.17,53.8s-71.13,33.58-107,49.58-72.06,31.48-108.47,46.37-73.07,29.23-110.37,42.12c34.54-19.09,69.75-36.69,105.16-53.82s71.13-33.58,107-49.56,72.07-31.46,108.48-46.36S1112.59-2206.56,1149.89-2219.47Z" transform="translate(-107.99 2765.6)"/><path class="cls-1" d="M718.84-2027.6c34.43-14.64,69.36-27.72,104.43-40.35s70.39-24.51,105.85-35.94,71.09-22.32,106.92-32.61,71.85-20,108.35-28.16C1110-2150,1075-2136.92,1040-2124.3s-70.39,24.51-105.86,35.92-71.09,22.31-106.92,32.59S755.34-2035.82,718.84-2027.6Z" transform="translate(-107.99 2765.6)"/><path class="cls-1" d="M1133.68-2112.83c-33.89,10.41-68.11,19.23-102.43,27.56s-68.78,15.92-103.35,23-69.25,13.67-104.06,19.61-69.74,11.25-105,15c33.89-10.43,68.11-19.26,102.42-27.59s68.79-15.92,103.36-23,69.25-13.65,104.06-19.58S1098.43-2109,1133.68-2112.83Z" transform="translate(-107.99 2765.6)"/><path class="cls-1" d="M1119.8-2068c-33.07,6.72-66.31,11.83-99.6,16.45s-66.65,8.48-100.06,11.85-66.88,6.19-100.42,8.37-67.12,3.74-100.88,3.73c33.08-6.75,66.31-11.86,99.6-16.48s66.65-8.48,100.06-11.83,66.89-6.17,100.42-8.35S1086.05-2068,1119.8-2068Z" transform="translate(-107.99 2765.6)"/><path class="cls-1" d="M846-2154.75c.75-45.18,3.11-90.21,6-135.19s6.47-89.91,10.57-134.78,8.76-89.69,14.06-134.46,11.21-89.46,18.7-134c-.73,45.18-3.09,90.22-5.94,135.2s-6.47,89.91-10.59,134.78-8.78,89.69-14.08,134.45S853.45-2199.31,846-2154.75Z" transform="translate(-107.99 2765.6)"/><path class="cls-1" d="M938.32-2663.6c-4.38,43-10.35,85.72-16.8,128.35s-13.67,85.12-21.35,127.53-15.93,84.71-24.8,126.9S857-2196.55,846-2154.75c4.35-43,10.32-85.73,16.77-128.36s13.67-85.12,21.38-127.52,15.94-84.71,24.81-126.9S927.3-2621.8,938.32-2663.6Z" transform="translate(-107.99 2765.6)"/><path class="cls-1" d="M846-2154.75c7.72-40.7,17-81,26.77-121.12S893-2355.95,904-2395.76s22.48-79.48,34.61-119,24.86-78.81,39.1-117.72c-7.7,40.71-17,81-26.75,121.13s-20.26,80.08-31.25,119.89-22.5,79.46-34.63,118.95S860.21-2193.66,846-2154.75Z" transform="translate(-107.99 2765.6)"/><path class="cls-1" d="M1015.11-2595.21c-10.94,37.91-23.4,75.25-36.32,112.4s-26.55,74-40.64,110.75-28.69,73.22-43.9,109.49-31,72.33-48.26,107.82c10.92-37.92,23.38-75.25,36.3-112.41s26.55-74,40.65-110.74,28.72-73.21,43.93-109.48S997.87-2559.71,1015.11-2595.21Z" transform="translate(-107.99 2765.6)"/><path class="cls-1" d="M846-2154.75c14-34.69,29.44-68.64,45.31-102.37s32.44-67.1,49.43-100.26,34.49-66,52.55-98.66S1030-2521,1050-2552.57c-14,34.7-29.42,68.65-45.3,102.38s-32.44,67.1-49.45,100.25-34.5,66-52.56,98.65S866-2186.36,846-2154.75Z" transform="translate(-107.99 2765.6)"/><path class="cls-1" d="M1079.06-2508.34c-16.61,31.32-34.57,61.75-52.94,91.91s-37.38,59.9-56.8,89.37-39.3,58.63-59.72,87.44-41.35,57.28-63.61,84.87c16.58-31.33,34.54-61.77,52.91-91.92s37.39-59.9,56.82-89.36,39.32-58.62,59.74-87.43S1056.82-2480.73,1079.06-2508.34Z" transform="translate(-107.99 2765.6)"/><path class="cls-1" d="M1100.94-2466.83c-18.63,28.14-38.52,55.25-58.79,82.06s-41.14,53.12-62.38,79.13-42.91,51.67-65.08,76.92-44.83,50.11-68.7,74c18.61-28.15,38.5-55.27,58.77-82.07s41.14-53.13,62.39-79.13,42.93-51.65,65.11-76.9S1077.08-2443,1100.94-2466.83Z" transform="translate(-107.99 2765.6)"/><path class="cls-1" d="M1587.19-2038.17h-71.46v-412.41h350.1v72H1587.19Zm261.46-170.61H1640.09v-63.15h208.56Z" transform="translate(-107.99 2765.6)"/><path class="cls-1" d="M2391.3-2038.17h-87L2242.57-2142h-195l34.07-58.44H2208l-92-154.28-187,316.58h-82.26l237.09-394.69q14.13-23.26,35.18-23.26,20.49,0,34.62,23.26Z" transform="translate(-107.99 2765.6)"/><path class="cls-1" d="M2806.27-2048.42l-289.72-291.65v301.9h-68.69v-374.47q0-19.93,10-31.43t26.87-11.5q15.78,0,30.74,14.68l290.83,288.61v-301.63H2875v377.8q0,19.93-10,31.43t-25.76,11.5Q2821.5-2033.18,2806.27-2048.42Z" transform="translate(-107.99 2765.6)"/><path class="cls-1" d="M3396-2038.17H3147q-86.14,0-143.19-60.1t-57.06-150.26q0-90.15,56.5-146.1T3147-2450.58h223.52v72H3147q-55.66,0-91.95,37.53t-36.29,95.83q0,58.32,36.29,96.67t91.95,38.36h176.44v-107.19H3137.31V-2278H3396Z" transform="translate(-107.99 2765.6)"/><path class="cls-1" d="M3947.29-2152.83H3781.66v-69.8h165.63q37.39,0,58.86-21.47t21.47-56.64q0-35.73-21.47-56.78t-58.86-21.05H3728.76v340.4H3657.3v-412.41h290q70.9,0,110.79,39.74T4098-2303.09q0,68-40.16,109.12T3947.29-2152.83Z" transform="translate(-107.99 2765.6)"/><path class="cls-1" d="M4235.13-2036.51h-72v-414.07h72Zm331.81,0h-72v-179.2H4287.48v-64h207.45v-170.89h72Z" transform="translate(-107.99 2765.6)"/><path class="cls-1" d="M4941.19-2038.17H4840.93q-86.15,0-143.2-60.1t-57.06-150.26q0-90.15,56.51-146.1t143.75-55.95h100.26q89.75,0,146,56.22t56.22,145.69q0,90.3-57.47,150.4T4941.19-2038.17Zm-100.26-72h100.26q56.78,0,93.34-38.36t36.56-96.67q0-58.29-36.56-95.83t-93.34-37.53H4840.93q-55.68,0-92,37.53t-36.28,95.83q0,58.32,36.28,96.67T4840.93-2110.18Z" transform="translate(-107.99 2765.6)"/><path class="cls-1" d="M5410.17-2038.17h-72v-340.4H5181.66v-72h385.27v72H5410.17Z" transform="translate(-107.99 2765.6)"/><path class="cls-1" d="M5907.39-2038.17H5807.13q-86.15,0-143.2-60.1t-57.05-150.26q0-90.15,56.5-146.1t143.75-55.95h100.26q89.74,0,146,56.22t56.22,145.69q0,90.3-57.47,150.4T5907.39-2038.17Zm-100.26-72h100.26q56.77,0,93.34-38.36t36.56-96.67q0-58.29-36.56-95.83t-93.34-37.53H5807.13q-55.68,0-92,37.53t-36.28,95.83q0,58.32,36.28,96.67T5807.13-2110.18Z" transform="translate(-107.99 2765.6)"/><path class="cls-1" d="M6619.27-2038.17h-249q-86.15,0-143.19-60.1T6170-2248.53q0-90.15,56.5-146.1t143.75-55.95h223.52v72H6370.27q-55.67,0-92,37.53T6242-2245.21q0,58.32,36.29,96.67t92,38.36h176.44v-107.19H6360.58V-2278h258.69Z" transform="translate(-107.99 2765.6)"/><path class="cls-1" d="M7184.64-2038.17H7082.43l-104.14-114.66H6824v-63.43h171.73q38.49,0,58.72-21.33t20.22-61.49q0-39-20.78-59.27t-58.16-20.22H6771.11v340.4h-71.46v-412.41h296.09q70.35,0,110.1,40.57t39.74,109.82q0,50.42-22.43,85.87t-62.6,50.68Z" transform="translate(-107.99 2765.6)"/><path class="cls-1" d="M7753-2038.17h-87L7604.31-2142h-195l34.07-58.44h126.3l-92-154.28-187,316.58h-82.26l237.09-394.69q14.13-23.26,35.18-23.26,20.49,0,34.62,23.26Z" transform="translate(-107.99 2765.6)"/><path class="cls-1" d="M8101.26-2152.83H7935.63v-69.8h165.63q37.38,0,58.85-21.47t21.47-56.64q0-35.73-21.47-56.78t-58.85-21.05H7882.72v340.4h-71.46v-412.41h290q70.89,0,110.79,39.74t39.88,107.75q0,68-40.16,109.12T8101.26-2152.83Z" transform="translate(-107.99 2765.6)"/><path class="cls-1" d="M8389.09-2036.51h-72v-414.07h72Zm331.82,0h-72v-179.2H8441.44v-64h207.45v-170.89h72Z" transform="translate(-107.99 2765.6)"/><path class="cls-1" d="M9069.12-2038.17h-72v-156.49L8778.3-2450.58h96.94l160.37,190,161.19-190h92l-219.64,255.92Z" transform="translate(-107.99 2765.6)"/></g></g></svg>